<svg xmlns="http://www.w3.org/2000/svg" xmlns:xlink="http://www.w3.org/1999/xlink" width="1080" zoomAndPan="magnify" viewBox="0 0 810 809.999993" height="1080" preserveAspectRatio="xMidYMid meet" version="1.0"><defs><g/><clipPath id="efbf768c30"><path d="M 32.171875 341.644531 L 230.171875 341.644531 L 230.171875 468.394531 L 32.171875 468.394531 Z M 32.171875 341.644531 " clip-rule="nonzero"/></clipPath></defs><g clip-path="url(#efbf768c30)"><path fill="#ffeaf0" d="M 206.445312 341.765625 C 198.621094 341.765625 191.335938 345.640625 186.933594 352.140625 C 184.417969 355.828125 182.597656 359.78125 180.835938 363.609375 C 179.695312 366.109375 178.597656 368.457031 177.363281 370.648438 C 177.242188 370.878906 163.996094 393.140625 135.3125 393.140625 C 132.085938 393.140625 124.753906 390.871094 120.878906 389.433594 C 120.125 389.15625 119.289062 389.109375 118.503906 389.3125 C 113.59375 390.609375 101.722656 393.804688 95.796875 397.089844 C 97.414062 394.851562 103.867188 389.960938 105.984375 388.445312 C 107.542969 387.335938 108.082031 385.28125 107.28125 383.554688 C 106.460938 381.824219 104.53125 380.929688 102.679688 381.40625 L 101.878906 381.640625 C 95.886719 383.199219 81.902344 386.886719 71.464844 397.816406 C 86.503906 409.703125 104.425781 420.800781 127.410156 420.800781 C 165.941406 420.800781 187.96875 408.175781 198.804688 379.863281 C 199.59375 377.824219 201.878906 376.824219 203.914062 377.59375 C 205.953125 378.367188 206.972656 380.652344 206.183594 382.703125 C 194.175781 414.085938 169.136719 428.707031 127.410156 428.707031 C 104.117188 428.707031 85.390625 418.164062 70.476562 406.988281 C 70.246094 406.691406 69.984375 406.429688 69.675781 406.214844 C 49.746094 392.136719 39.929688 375.339844 39.929688 375.339844 C 39.203125 374.042969 37.796875 373.273438 36.316406 373.332031 C 34.925781 373.394531 33.660156 374.183594 33.011719 375.417969 C 32.347656 376.636719 32.378906 378.132812 33.105469 379.324219 C 33.105469 379.324219 40.683594 392.167969 55.691406 405.195312 C 53.3125 410.183594 48.851562 422.964844 56.707031 438.402344 C 57.3125 439.710938 58.59375 440.609375 60.042969 440.699219 C 61.480469 440.792969 62.867188 440.082031 63.640625 438.863281 C 64.410156 437.628906 64.457031 436.085938 63.746094 434.820312 C 57.914062 423.347656 60.074219 414.566406 61.925781 410.242188 C 62.746094 410.859375 63.5 411.480469 64.351562 412.097656 C 66.125 445.175781 95.410156 465.648438 123.085938 468.210938 C 123.210938 468.226562 123.335938 468.226562 123.457031 468.226562 C 124.988281 468.226562 126.375 467.34375 127.039062 465.957031 C 127.65625 464.628906 127.488281 463.085938 126.636719 461.925781 C 126.28125 461.261719 120.617188 451.242188 119.507812 448.464844 C 125.109375 455.707031 140.59375 467.296875 141.132812 467.636719 C 141.890625 468.101562 142.769531 468.285156 143.648438 468.210938 C 183.554688 463.792969 230.160156 434.246094 230.160156 365.476562 C 230.160156 352.402344 219.523438 341.765625 206.445312 341.765625 Z M 206.445312 341.765625 " fill-opacity="1" fill-rule="nonzero"/></g><g fill="#ffeaf0" fill-opacity="1"><g transform="translate(265.889491, 434.717634)"><g><path d="M 6.46875 -0.203125 C 7.507812 -8.628906 8.03125 -17.519531 8.03125 -26.875 C 8.03125 -36.226562 7.507812 -45.460938 6.46875 -54.578125 C 10.363281 -54.785156 13.960938 -55.203125 17.265625 -55.828125 C 20.578125 -56.453125 23.3125 -57.253906 25.46875 -58.234375 C 24.5625 -54.203125 23.898438 -50.445312 23.484375 -46.96875 C 23.066406 -43.488281 22.753906 -39.765625 22.546875 -35.796875 L 23.6875 -35.796875 C 24.9375 -39.972656 26.65625 -43.75 28.84375 -47.125 C 31.039062 -50.5 33.738281 -53.160156 36.9375 -55.109375 C 40.144531 -57.054688 43.9375 -58.03125 48.3125 -58.03125 C 52.695312 -58.03125 56.265625 -57.085938 59.015625 -55.203125 C 61.765625 -53.328125 63.800781 -50.835938 65.125 -47.734375 C 66.445312 -44.640625 67.210938 -41.285156 67.421875 -37.671875 L 68.453125 -37.671875 C 69.359375 -41.148438 70.925781 -44.4375 73.15625 -47.53125 C 75.382812 -50.632812 78.164062 -53.160156 81.5 -55.109375 C 84.84375 -57.054688 88.601562 -58.03125 92.78125 -58.03125 C 97.226562 -58.03125 100.910156 -56.945312 103.828125 -54.78125 C 106.753906 -52.625 108.945312 -49.71875 110.40625 -46.0625 C 111.875 -42.414062 112.640625 -38.398438 112.703125 -34.015625 C 112.773438 -31.441406 112.789062 -28.207031 112.75 -24.3125 C 112.71875 -20.414062 112.804688 -16.34375 113.015625 -12.09375 C 113.222656 -7.851562 113.710938 -3.890625 114.484375 -0.203125 L 96.21875 -0.203125 C 96.632812 -4.304688 96.875 -8.394531 96.9375 -12.46875 C 97.007812 -16.539062 97.046875 -20.59375 97.046875 -24.625 C 97.046875 -31.238281 95.984375 -36.265625 93.859375 -39.703125 C 91.742188 -43.148438 88.320312 -44.875 83.59375 -44.875 C 73.914062 -44.875 69.078125 -37.5 69.078125 -22.75 C 69.078125 -18.570312 69.164062 -14.445312 69.34375 -10.375 C 69.519531 -6.3125 69.851562 -2.921875 70.34375 -0.203125 L 51.859375 -0.203125 C 52.210938 -4.304688 52.421875 -8.375 52.484375 -12.40625 C 52.554688 -16.445312 52.59375 -20.519531 52.59375 -24.625 C 52.59375 -31.09375 51.566406 -36.082031 49.515625 -39.59375 C 47.460938 -43.113281 44.175781 -44.875 39.65625 -44.875 C 34.644531 -44.875 30.882812 -42.957031 28.375 -39.125 C 25.875 -35.300781 24.625 -29.878906 24.625 -22.859375 C 24.625 -19.023438 24.660156 -15.210938 24.734375 -11.421875 C 24.804688 -7.628906 25.050781 -3.820312 25.46875 0 Z M 6.46875 -0.203125 "/></g></g></g><g fill="#ffeaf0" fill-opacity="1"><g transform="translate(386.101668, 434.717634)"><g><path d="M 74.09375 0 L 57.1875 0 C 56.488281 -2.226562 55.945312 -4.421875 55.5625 -6.578125 C 55.1875 -8.734375 54.925781 -10.851562 54.78125 -12.9375 C 52.832031 -10.019531 50.625 -7.484375 48.15625 -5.328125 C 45.6875 -3.171875 42.765625 -1.484375 39.390625 -0.265625 C 36.015625 0.953125 31.929688 1.5625 27.140625 1.5625 C 19.554688 1.5625 13.898438 0.0664062 10.171875 -2.921875 C 6.453125 -5.910156 4.59375 -9.597656 4.59375 -13.984375 C 4.59375 -19.128906 7.21875 -23.195312 12.46875 -26.1875 C 17.71875 -29.1875 25.703125 -30.6875 36.421875 -30.6875 L 54.578125 -30.6875 C 54.441406 -33.8125 53.847656 -36.539062 52.796875 -38.875 C 51.753906 -41.207031 49.910156 -43.015625 47.265625 -44.296875 C 44.628906 -45.585938 40.804688 -46.234375 35.796875 -46.234375 C 29.742188 -46.234375 24.085938 -45.257812 18.828125 -43.3125 C 13.578125 -41.363281 9.421875 -38.925781 6.359375 -36 C 6.640625 -37.394531 6.8125 -39.03125 6.875 -40.90625 C 6.945312 -42.789062 6.945312 -44.632812 6.875 -46.4375 C 6.8125 -48.25 6.640625 -49.742188 6.359375 -50.921875 C 10.253906 -52.734375 14.828125 -54.351562 20.078125 -55.78125 C 25.335938 -57.207031 31.378906 -57.921875 38.203125 -57.921875 C 45.015625 -57.921875 50.835938 -57.101562 55.671875 -55.46875 C 60.503906 -53.832031 64.191406 -51.132812 66.734375 -47.375 C 69.273438 -43.625 70.546875 -38.582031 70.546875 -32.25 C 70.617188 -25.570312 70.878906 -19.65625 71.328125 -14.5 C 71.785156 -9.351562 72.707031 -4.519531 74.09375 0 Z M 35.28125 -9.5 C 39.03125 -9.5 42.539062 -10.035156 45.8125 -11.109375 C 49.082031 -12.191406 52.039062 -13.601562 54.6875 -15.34375 C 54.613281 -16.9375 54.59375 -18.515625 54.625 -20.078125 C 54.664062 -21.648438 54.6875 -23.132812 54.6875 -24.53125 L 54.6875 -26.296875 L 45.8125 -26.296875 C 38.09375 -26.296875 32.234375 -25.617188 28.234375 -24.265625 C 24.234375 -22.910156 22.234375 -20.628906 22.234375 -17.421875 C 22.234375 -14.921875 23.34375 -12.972656 25.5625 -11.578125 C 27.789062 -10.191406 31.03125 -9.5 35.28125 -9.5 Z M 35.28125 -9.5 "/></g></g></g><g fill="#ffeaf0" fill-opacity="1"><g transform="translate(464.677867, 434.717634)"><g><path d="M 41.328125 1.140625 C 29.015625 1.140625 19.65625 -1.484375 13.25 -6.734375 C 6.851562 -11.984375 3.65625 -19.234375 3.65625 -28.484375 C 3.65625 -37.742188 6.851562 -44.984375 13.25 -50.203125 C 19.65625 -55.421875 29.015625 -58.03125 41.328125 -58.03125 C 52.390625 -58.03125 62.335938 -55.835938 71.171875 -51.453125 C 70.753906 -50.203125 70.457031 -48.53125 70.28125 -46.4375 C 70.113281 -44.351562 70.113281 -42.285156 70.28125 -40.234375 C 70.457031 -38.179688 70.753906 -36.492188 71.171875 -35.171875 C 67.898438 -38.367188 63.914062 -40.992188 59.21875 -43.046875 C 54.53125 -45.097656 49.4375 -46.125 43.9375 -46.125 C 36.28125 -46.125 30.378906 -44.628906 26.234375 -41.640625 C 22.097656 -38.648438 20.03125 -34.265625 20.03125 -28.484375 C 20.03125 -22.785156 22.097656 -18.421875 26.234375 -15.390625 C 30.378906 -12.367188 36.28125 -10.859375 43.9375 -10.859375 C 49.5 -10.859375 54.578125 -11.691406 59.171875 -13.359375 C 63.765625 -15.023438 67.765625 -17.285156 71.171875 -20.140625 C 70.753906 -18.816406 70.457031 -17.25 70.28125 -15.4375 C 70.113281 -13.632812 70.113281 -11.84375 70.28125 -10.0625 C 70.457031 -8.289062 70.753906 -6.78125 71.171875 -5.53125 C 66.722656 -3.300781 61.992188 -1.628906 56.984375 -0.515625 C 51.972656 0.585938 46.753906 1.140625 41.328125 1.140625 Z M 41.328125 1.140625 "/></g></g></g><g fill="#ffeaf0" fill-opacity="1"><g transform="translate(540.33223, 434.717634)"><g><path d="M 50.09375 0 C 47.9375 -4.175781 45.03125 -8.347656 41.375 -12.515625 C 37.726562 -16.691406 33.742188 -21.671875 29.421875 -27.453125 C 27.335938 -27.035156 25.21875 -26.828125 23.0625 -26.828125 C 23.195312 -21.671875 23.367188 -16.78125 23.578125 -12.15625 C 23.785156 -7.53125 24.03125 -3.476562 24.3125 0 L 5.953125 0 C 6.429688 -4.03125 6.8125 -8.722656 7.09375 -14.078125 C 7.375 -19.441406 7.566406 -25.078125 7.671875 -30.984375 C 7.773438 -36.898438 7.773438 -42.78125 7.671875 -48.625 C 7.566406 -54.46875 7.375 -59.960938 7.09375 -65.109375 C 6.8125 -70.265625 6.429688 -74.753906 5.953125 -78.578125 C 9.078125 -78.722656 12.445312 -79.054688 16.0625 -79.578125 C 19.6875 -80.097656 22.890625 -80.914062 25.671875 -82.03125 C 24.910156 -77.925781 24.300781 -73.109375 23.84375 -67.578125 C 23.394531 -62.046875 23.117188 -56.195312 23.015625 -50.03125 C 22.910156 -43.875 22.890625 -37.738281 22.953125 -31.625 C 25.742188 -31.96875 28.5625 -32.867188 31.40625 -34.328125 C 34.257812 -35.796875 36.921875 -37.625 39.390625 -39.8125 C 41.859375 -42 43.925781 -44.394531 45.59375 -47 C 47.269531 -49.613281 48.28125 -52.242188 48.625 -54.890625 C 50.570312 -55.035156 52.9375 -55.175781 55.71875 -55.3125 C 58.507812 -55.445312 61.3125 -55.6875 64.125 -56.03125 C 66.945312 -56.382812 69.296875 -56.910156 71.171875 -57.609375 C 70.265625 -53.847656 68.472656 -50.296875 65.796875 -46.953125 C 63.117188 -43.617188 59.847656 -40.59375 55.984375 -37.875 C 52.128906 -35.164062 47.90625 -32.90625 43.3125 -31.09375 C 46.164062 -27.820312 49.3125 -24.203125 52.75 -20.234375 C 56.195312 -16.273438 59.742188 -12.484375 63.390625 -8.859375 C 67.046875 -5.242188 70.578125 -2.289062 73.984375 0 Z M 50.09375 0 "/></g></g></g><g fill="#ffeaf0" fill-opacity="1"><g transform="translate(614.42134, 434.717634)"><g><path d="M 73.671875 -19.40625 C 73.191406 -17.457031 72.953125 -15.070312 72.953125 -12.25 C 72.953125 -9.4375 73.191406 -7.054688 73.671875 -5.109375 C 69.222656 -2.953125 64.234375 -1.316406 58.703125 -0.203125 C 53.171875 0.910156 47.625 1.46875 42.0625 1.46875 C 29.394531 1.46875 19.828125 -1.175781 13.359375 -6.46875 C 6.890625 -11.757812 3.65625 -19.03125 3.65625 -28.28125 C 3.65625 -34.539062 5.0625 -39.894531 7.875 -44.34375 C 10.695312 -48.800781 14.695312 -52.210938 19.875 -54.578125 C 25.0625 -56.941406 31.171875 -58.125 38.203125 -58.125 C 43.410156 -58.125 48.257812 -57.425781 52.75 -56.03125 C 57.238281 -54.644531 61.117188 -52.59375 64.390625 -49.875 C 67.660156 -47.164062 70.09375 -43.8125 71.6875 -39.8125 C 73.289062 -35.8125 73.816406 -31.203125 73.265625 -25.984375 C 61.429688 -26.191406 51.097656 -26.296875 42.265625 -26.296875 C 33.429688 -26.296875 26.332031 -26.226562 20.96875 -26.09375 C 21.664062 -21.21875 23.789062 -17.351562 27.34375 -14.5 C 30.894531 -11.65625 36.425781 -10.265625 43.9375 -10.328125 C 47.269531 -10.398438 50.796875 -10.800781 54.515625 -11.53125 C 58.242188 -12.257812 61.8125 -13.300781 65.21875 -14.65625 C 68.632812 -16.019531 71.453125 -17.601562 73.671875 -19.40625 Z M 38.203125 -46.96875 C 32.984375 -46.96875 28.84375 -45.625 25.78125 -42.9375 C 22.71875 -40.257812 21.046875 -36.347656 20.765625 -31.203125 C 25.773438 -31.066406 31.410156 -31 37.671875 -31 C 43.929688 -31 50.125 -31.03125 56.25 -31.09375 C 55.625 -36.25 53.707031 -40.179688 50.5 -42.890625 C 47.300781 -45.609375 43.203125 -46.96875 38.203125 -46.96875 Z M 38.203125 -46.96875 "/></g></g></g><g fill="#ffeaf0" fill-opacity="1"><g transform="translate(693.101902, 434.717634)"><g><path d="M 73.671875 -19.40625 C 73.191406 -17.457031 72.953125 -15.070312 72.953125 -12.25 C 72.953125 -9.4375 73.191406 -7.054688 73.671875 -5.109375 C 69.222656 -2.953125 64.234375 -1.316406 58.703125 -0.203125 C 53.171875 0.910156 47.625 1.46875 42.0625 1.46875 C 29.394531 1.46875 19.828125 -1.175781 13.359375 -6.46875 C 6.890625 -11.757812 3.65625 -19.03125 3.65625 -28.28125 C 3.65625 -34.539062 5.0625 -39.894531 7.875 -44.34375 C 10.695312 -48.800781 14.695312 -52.210938 19.875 -54.578125 C 25.0625 -56.941406 31.171875 -58.125 38.203125 -58.125 C 43.410156 -58.125 48.257812 -57.425781 52.75 -56.03125 C 57.238281 -54.644531 61.117188 -52.59375 64.390625 -49.875 C 67.660156 -47.164062 70.09375 -43.8125 71.6875 -39.8125 C 73.289062 -35.8125 73.816406 -31.203125 73.265625 -25.984375 C 61.429688 -26.191406 51.097656 -26.296875 42.265625 -26.296875 C 33.429688 -26.296875 26.332031 -26.226562 20.96875 -26.09375 C 21.664062 -21.21875 23.789062 -17.351562 27.34375 -14.5 C 30.894531 -11.65625 36.425781 -10.265625 43.9375 -10.328125 C 47.269531 -10.398438 50.796875 -10.800781 54.515625 -11.53125 C 58.242188 -12.257812 61.8125 -13.300781 65.21875 -14.65625 C 68.632812 -16.019531 71.453125 -17.601562 73.671875 -19.40625 Z M 38.203125 -46.96875 C 32.984375 -46.96875 28.84375 -45.625 25.78125 -42.9375 C 22.71875 -40.257812 21.046875 -36.347656 20.765625 -31.203125 C 25.773438 -31.066406 31.410156 -31 37.671875 -31 C 43.929688 -31 50.125 -31.03125 56.25 -31.09375 C 55.625 -36.25 53.707031 -40.179688 50.5 -42.890625 C 47.300781 -45.609375 43.203125 -46.96875 38.203125 -46.96875 Z M 38.203125 -46.96875 "/></g></g></g></svg>